<!-- icon666.com - MILLIONS vector ICONS FREE --><svg version="1.1" id="Layer_1" xmlns="http://www.w3.org/2000/svg" xmlns:xlink="http://www.w3.org/1999/xlink" x="0px" y="0px" viewBox="0 0 512 512" style="enable-background:new 0 0 512 512;" xml:space="preserve"><polygon style="" points="9.846,393.846 9.846,433.231 374.154,433.231 433.231,433.231 502.154,433.231 502.154,393.846 " fill="#F08E6B"></polygon><path style="fill: rgb(253, 187, 129);" d="M288.492,393.846H144.738c-69.061,0-125.046-55.985-125.046-125.046V78.769h393.846V268.8 C413.538,337.861,357.553,393.846,288.492,393.846z" fill="#FFB270"></path><path d="M403.692,423.385c-2.59,0-5.13,1.054-6.961,2.885s-2.885,4.372-2.885,6.961s1.053,5.13,2.885,6.961 c1.832,1.831,4.372,2.885,6.961,2.885c2.59,0,5.13-1.054,6.96-2.885c1.831-1.831,2.886-4.372,2.886-6.961s-1.054-5.13-2.886-6.961 C408.822,424.438,406.282,423.385,403.692,423.385z" fill="#000000"></path><path d="M423.385,268.8v-2.954h21.005c37.28,0,67.611-30.33,67.611-67.611v-63.672c0-25.335-20.613-45.948-45.949-45.948h-42.666 v-9.846c0-5.438-4.409-9.846-9.846-9.846H19.692c-5.437,0-9.846,4.408-9.846,9.846V268.8c0,48.721,25.964,91.488,64.782,115.2H9.846 C4.409,384,0,388.408,0,393.846v39.385c0,5.438,4.409,9.846,9.846,9.846h364.308c5.437,0,9.846-4.408,9.846-9.846 s-4.409-9.846-9.846-9.846H19.692v-19.692l0,0h472.615l0,0v19.692h-59.077c-5.437,0-9.846,4.408-9.846,9.846 s4.409,9.846,9.846,9.846h68.923c5.437,0,9.846-4.408,9.846-9.846v-39.385c0-5.438-4.409-9.846-9.846-9.846H358.603 C397.42,360.288,423.385,317.521,423.385,268.8z M466.051,108.308c14.478,0,26.257,11.778,26.257,26.257v63.672 c0,26.421-21.496,47.917-47.918,47.917h-21.005V108.308H466.051z M288.492,384H144.738c-63.521,0-115.2-51.679-115.2-115.2V128 h29.538c5.437,0,9.846-4.408,9.846-9.846s-4.409-9.846-9.846-9.846H29.538V88.615h374.154V268.8 C403.692,332.321,352.014,384,288.492,384z" fill="#000000"></path><path d="M88.615,108.308c-2.59,0-5.13,1.054-6.961,2.885c-1.831,1.831-2.885,4.372-2.885,6.961s1.053,5.13,2.885,6.961 c1.832,1.831,4.372,2.885,6.961,2.885c2.59,0,5.13-1.054,6.96-2.885c1.831-1.831,2.886-4.372,2.886-6.961s-1.054-5.13-2.886-6.961 C93.745,109.361,91.205,108.308,88.615,108.308z" fill="#000000"></path></svg>