<!-- icon666.com - MILLIONS vector ICONS FREE --><svg id="Capa_1" enable-background="new 0 0 510 510" viewBox="0 0 510 510" xmlns="http://www.w3.org/2000/svg"><g><g><g><path id="XMLID_109_" d="m172.5 0c-66.168 0-120 53.832-120 120 0 61.037 45.807 111.577 104.849 119.049l134.226-133.995c-7.381-59.142-57.968-105.054-119.075-105.054z" fill="#ffe377"></path></g></g><g fill="#ffd322"><path d="m99.169 172.118c-7.728-10.841-13.092-23.466-15.394-37.118h52.512z"></path><path d="m187.5 31.275c13.652 2.302 26.277 7.666 37.118 15.393l-37.118 37.119z"></path><path d="m157.5 83.787-37.12-37.12c10.843-7.729 23.465-13.109 37.12-15.41z"></path><path d="m136.287 105h-52.53c2.301-13.655 7.682-26.277 15.41-37.12z"></path><path d="m245.819 67.894c7.728 10.841 13.123 23.452 15.423 37.106l-28.742 15-23.787-15z"></path><path d="m157.5 156.213-37.106 37.106c10.841 7.728 23.456 13.117 37.106 15.422l15-28.741z"></path></g><path id="XMLID_159_" d="m157.5 105v405h150l17.666-170.333-17.666-234.667z" fill="#e3f2ff"></path><path id="XMLID_157_" d="m307.5 105h150v405h-150z" fill="#cfe7ff"></path><path id="XMLID_156_" d="m187.5 240v240h120l16.334-121-16.334-119z" fill="#ffe377"></path><g><g><path id="XMLID_81_" d="m335.166 249.666-13.938-9.505 2.445-5.976 98-233 27.654 11.63-95.765 227.685z" fill="#554e56"></path></g></g><path id="XMLID_150_" d="m307.5 240h120v240h-120z" fill="#ffd322"></path><g><g><circle id="XMLID_108_" cx="352.5" cy="405" fill="#ffaf22" r="30"></circle></g></g><g><path id="XMLID_147_" d="m307.5 300h30v30h-30z" fill="#ffaf22"></path></g><g><g><path id="XMLID_103_" d="m232.5 360h30v30h-30z" fill="#ffd322"></path></g></g><g><g><path id="XMLID_102_" d="m217.5 300h30v30h-30z" fill="#ffd322"></path></g></g><g><g><path id="XMLID_101_" d="m217.5 420h30v30h-30z" fill="#ffd322"></path></g></g><g><path id="XMLID_139_" d="m367.5 285h30v30h-30z" fill="#ffaf22"></path></g></g></svg>