<!-- icon666.com - MILLIONS vector ICONS FREE --><svg id="Layer_1" enable-background="new 0 0 91 91" viewBox="0 0 91 91" xmlns="http://www.w3.org/2000/svg"><g><path d="m21.24 25.323c0-13.37 10.835-24.202 24.195-24.202 13.366 0 24.199 10.832 24.199 24.202 0 13.362-10.833 24.199-24.199 24.199-13.36 0-24.195-10.836-24.195-24.199z" fill="#f7f6f5"></path><g><g><path d="m57.398 54.793c-.166-.061-.338-.117-.514-.175-.396-.128-.803-.254-1.244-.368-.003-.002-.008-.003-.013-.003-3.144-.825-7.3-1.316-11.852-1.372h-.003c-1.373 0-6.031.321-6.199.333v.002c-.022.001-.041.005-.063.006-3.385.387-6.315 1.076-8.362 1.964 3.3 1.432 8.78 2.305 14.632 2.305 5.842 0 11.314-.869 14.615-2.297-.081-.035-.156-.073-.24-.107-.241-.101-.492-.195-.757-.288z" fill="#a8947d"></path><path d="m26.708 72.824c.009.018-.001.035.003.054 1.551 6.044 6.482 8.7 15.686 8.7h2.775c9.344 0 14.282-2.739 15.753-8.979.005-.018-.007-.034.002-.052.001-.005.008-.005.011-.01.311-1.344.471-2.841.471-4.517v-13.783c-.439.458-1.027.899-1.818 1.313h-.002c-3.328 1.733-9.237 2.77-15.807 2.77-6.465 0-12.518-1.063-15.797-2.768 0-.002-.001-.002-.001-.002-.791-.413-1.382-.853-1.818-1.313v13.783c0 1.786.171 3.378.524 4.787.003.008.015.008.018.017z" fill="#b1ddd2"></path><path d="m66.613 55.884h-4.371v2.556h2.373c1.956 0 3.546 1.592 3.546 3.547v2.967c0 1.956-1.59 3.547-3.546 3.547h-2.395c-.017.912-.088 1.759-.197 2.556h4.591c2.763 0 5.01-2.249 5.01-5.012v-5.146c-.001-2.766-2.248-5.015-5.011-5.015z" fill="#b1ddd2"></path><path d="m61.56 73.313c-2.234 7.919-9.716 9.1-16.388 9.1h-2.775c-6.587 0-13.967-1.146-16.302-8.8-3.106 1.638-4.827 3.635-4.827 5.664 0 5.124 10.255 9.292 22.857 9.292 12.605 0 22.86-4.168 22.86-9.292 0-2.168-1.932-4.273-5.425-5.964z" fill="#dff2f8"></path></g><g fill="#f17896"><path d="m76.221 25.338c-1.19-.986-3.168-.884-4.26.217-.111.111-.213.23-.31.359-.714-.961-1.886-1.463-3.112-1.241-.979.179-1.751.72-2.296 1.606-.762 1.252-.821 2.459-.183 3.586.338.596.781 1.186 1.358 1.806 1.048 1.114 2.288 2.173 3.931 3.349.066.04.223.089.3.089.177 0 .292-.087.351-.13 1.458-1.041 2.606-2.002 3.611-3.023.559-.572 1.193-1.275 1.656-2.148.212-.398.424-.883.413-1.446-.031-1.235-.522-2.251-1.459-3.024z"></path><path d="m31.33 18.97c.132-1.54 1.022-3.105 2.267-3.987.528-.375 1.306-.76 2.274-.76.301 0 .621.035.955.122 1.287.331 3.748 2.8 4.798 3.854.323.325.56.56.663.644.945.773 1.758 1.085 2.509.963 1.147-.197 1.843-1.341 2.647-2.666.865-1.43 1.849-3.047 3.566-3.621 2.226-.745 4.557-.336 6.389 1.119 2.041 1.623 3.104 4.238 2.844 7-.454 4.813-1.904 8.385-8.262 13.462-.637.509-1.313.952-2.027 1.423-1.832 1.203-3.711 2.439-5.018 4.809-1.218-2.295-4.063-5.411-4.203-5.564l-1.021-1.064c-4.186-4.35-8.928-9.279-8.381-15.734z"></path></g></g><path d="m13.111 49.147c-1.184 0-2.147-.965-2.147-2.151s.964-2.149 2.147-2.149c1.186 0 2.149.964 2.149 2.149.001 1.187-.963 2.151-2.149 2.151z" fill="#444c57"></path><path d="m45.088 83.71h-2.775c-7.865 0-18.32-1.622-18.32-15.645v-15.112c0-.922.748-1.67 1.67-1.67.923 0 1.67.748 1.67 1.67v15.112c0 8.739 4.34 12.305 14.98 12.305h2.775c10.642 0 14.982-3.565 14.982-12.305v-15.112c0-.922.748-1.67 1.67-1.67s1.67.748 1.67 1.67v15.112c0 14.023-10.457 15.645-18.322 15.645z" fill="#444c57"></path><g><g fill="#444c57"><path d="m59.311 56.894c-.266 0-.53-.063-.772-.189-2.995-1.562-8.683-2.532-14.841-2.532-.923 0-1.67-.748-1.67-1.67s.747-1.67 1.67-1.67c6.244 0 11.944.927 15.533 2.504.652-.439.831-.758.84-.835 0-.819-1.354-1.694-3.619-2.338-.888-.252-1.402-1.176-1.15-2.063s1.175-1.402 2.063-1.15c4.012 1.14 6.047 3.008 6.047 5.553 0 1.634-1.119 3.048-3.326 4.201-.244.125-.51.189-.775.189z"></path><path d="m49.83 49.048c-.066 0-.133-.004-.201-.012-1.957-.235-2.999-.313-5.307-.313-.922 0-1.67-.748-1.67-1.67s.748-1.67 1.67-1.67c2.459 0 3.633.088 5.705.337.916.11 1.569.941 1.459 1.857-.101.848-.822 1.471-1.656 1.471z"></path><path d="m28.091 56.894c-.266 0-.532-.063-.774-.19-2.205-1.153-3.324-2.566-3.324-4.2 0-5.142 10.885-6.557 14.221-6.868.924-.084 1.732.59 1.818 1.508.086.919-.59 1.732-1.508 1.818-8.393.782-11.191 3.013-11.191 3.542.01.075.186.392.834.828 2.414-1.094 5.343-1.784 9.117-2.155.924-.076 1.736.581 1.826 1.499s-.581 1.734-1.498 1.825c-3.789.372-6.57 1.073-8.751 2.206-.242.124-.506.187-.77.187z"></path><path d="m43.697 59.615c-6.757 0-12.879-1.088-16.378-2.91-.552-.288-.898-.858-.898-1.481 0-.622.346-1.193.897-1.48 2.279-1.188 5.81-2.099 9.941-2.564.916-.117 1.744.556 1.848 1.472.103.917-.557 1.744-1.473 1.847-1.598.181-3.08.427-4.406.728 2.942.67 6.613 1.051 10.469 1.051 3.861 0 7.537-.382 10.482-1.052-2.943-.67-6.621-1.052-10.482-1.052-.923 0-1.67-.748-1.67-1.67s.747-1.67 1.67-1.67c6.765 0 12.891 1.088 16.385 2.911.553.287.898.858.898 1.48 0 .623-.346 1.193-.898 1.481-3.499 1.821-9.624 2.909-16.385 2.909z"></path></g></g><path d="m66.529 73.188h-4.789c-.922 0-1.67-.748-1.67-1.67s.748-1.67 1.67-1.67h4.789c2.071 0 3.757-1.687 3.757-3.759v-5.147c0-2.073-1.686-3.761-3.757-3.761h-4.789c-.922 0-1.67-.748-1.67-1.67s.748-1.67 1.67-1.67h4.789c3.913 0 7.097 3.186 7.097 7.101v5.147c0 3.914-3.184 7.099-7.097 7.099z" fill="#444c57"></path><path d="m53.705 75.381c-.54 0-1.07-.262-1.392-.744-.511-.769-.304-1.805.465-2.316 1.662-1.105 1.726-2.899 1.728-2.975v-5.832c0-.922.748-1.67 1.67-1.67s1.67.748 1.67 1.67v5.852c0 .146-.037 3.619-3.217 5.736-.284.188-.606.279-.924.279z" fill="#fff"></path><path d="m49.287 77.627c-1.021 0-1.853-.832-1.853-1.854 0-1.023.831-1.855 1.853-1.855 1.024 0 1.857.832 1.857 1.855.001 1.022-.832 1.854-1.857 1.854z" fill="#fff"></path><g fill="#444c57"><path d="m44.041 90.701c-14.222 0-24.945-4.893-24.945-11.38 0-2.094 1.112-5.14 6.412-7.765.828-.407 1.829-.069 2.238.756.409.827.07 1.828-.756 2.238-2.895 1.433-4.555 3.172-4.555 4.771 0 3.803 8.873 8.04 21.605 8.04s21.607-4.237 21.607-8.04c0-1.715-1.867-3.551-5.121-5.039-.839-.383-1.208-1.374-.824-2.213.383-.838 1.375-1.209 2.213-.824 4.561 2.085 7.072 4.953 7.072 8.076.001 6.488-10.724 11.38-24.946 11.38z"></path><path d="m71.565 36.404c-.309 0-.691-.112-.954-.273-.034-.021-.066-.043-.1-.065-1.688-1.209-2.986-2.318-4.091-3.492-.647-.696-1.147-1.363-1.534-2.046-.605-1.066-1.063-2.775.202-4.855.731-1.191 1.817-1.945 3.142-2.188 1.18-.215 2.394.07 3.338.742 1.56-1.097 3.891-1.033 5.367.191 1.21.998 1.872 2.367 1.912 3.955.019.86-.288 1.555-.557 2.063-.539 1.014-1.247 1.801-1.869 2.438-1.06 1.079-2.26 2.086-3.779 3.17-.322.236-.688.36-1.077.36zm-2.532-9.652c-.067 0-.136.006-.204.02-.392.07-.657.263-.89.643-.468.768-.33 1.145-.148 1.466.262.46.602.908 1.07 1.412.748.796 1.622 1.573 2.702 2.397.968-.737 1.763-1.432 2.473-2.153.453-.464.966-1.027 1.304-1.664.158-.298.169-.398.168-.422-.016-.62-.231-1.071-.701-1.458-.397-.33-1.087-.287-1.449.076-.113.114-.201.245-.293.431-.273.56-.836.921-1.459.936-.646.008-1.203-.318-1.504-.863l-.092-.177c-.217-.416-.571-.644-.977-.644z"></path><path d="m43.668 53.695c-.869 0-1.602-.673-1.664-1.553-.797-11.383 3.623-14.289 7.176-16.624.69-.454 1.342-.882 1.935-1.354 6.042-4.824 7.366-8.029 7.796-12.602.221-2.338-.668-4.544-2.376-5.9-1.493-1.188-3.395-1.518-5.214-.912-1.281.428-2.1 1.777-2.892 3.082-.882 1.455-1.796 2.959-3.508 3.25-1.124.191-2.274-.209-3.515-1.229-.115-.095-.387-.357-.754-.727-2.701-2.711-3.787-3.414-4.223-3.525-.762-.195-1.502-.046-2.193.445-.941.668-1.643 1.904-1.743 3.074-.499 5.889 3.839 10.396 8.034 14.756l1.027 1.07c.636.668.61 1.725-.058 2.361-.669.635-1.726.609-2.361-.059l-1.015-1.057c-4.492-4.668-9.584-9.959-8.956-17.356.187-2.159 1.388-4.272 3.139-5.514 1.487-1.056 3.249-1.396 4.956-.957 1.701.438 3.864 2.503 5.759 4.403.242.244.423.428.521.514.588.482.845.504.848.505.234-.119.808-1.063 1.187-1.688.948-1.563 2.246-3.701 4.69-4.518 2.91-.972 5.953-.438 8.349 1.465 2.595 2.063 3.95 5.363 3.623 8.829-.577 6.132-2.942 10.031-9.038 14.898-.713.568-1.46 1.06-2.183 1.535-3.261 2.143-6.339 4.167-5.679 13.599.064.921-.629 1.719-1.549 1.783-.039.005-.079.006-.119.006z"></path><path d="m30.254 40.913c-.104 0-.211-.01-.316-.03-.906-.174-1.5-1.049-1.326-1.955.346-1.799-.389-2.861-3.022-4.375-.263-.15-.522-.291-.776-.43-1.377-.745-2.8-1.516-3.827-3.287-.896-1.549-1.235-4.186-.149-6.231.433-.815 1.443-1.125 2.258-.692.814.432 1.125 1.443.692 2.258-.506.953-.269 2.373.089 2.99.556.958 1.383 1.406 2.527 2.026.278.15.563.304.85.47 1.801 1.034 5.545 3.186 4.641 7.901-.157.799-.856 1.355-1.641 1.355z"></path><path d="m56.908 50.227c-.479 0-.953-.204-1.283-.6-3.232-3.87.59-7.334 2.875-9.404 1.016-.92 2.279-2.066 2.435-2.709.217-.898 1.12-1.449 2.016-1.23.896.217 1.447 1.119 1.23 2.016-.397 1.643-1.874 2.98-3.438 4.398-2.998 2.717-3.499 3.657-2.554 4.789.591.708.497 1.761-.212 2.353-.312.26-.692.387-1.069.387z"></path></g><path d="m51.387 30.306c-.449 0-.896-.18-1.225-.534-.627-.677-.588-1.733.089-2.36 1.194-1.106 2.405-3.024 2.411-4.549.003-.644-.209-1.144-.664-1.573-.672-.632-.703-1.689-.071-2.36s1.689-.702 2.36-.071c1.129 1.063 1.721 2.451 1.715 4.018-.01 2.784-1.881 5.503-3.48 6.985-.322.296-.729.444-1.135.444z" fill="#fff"></path><path d="m48.279 33.379h-.109c-.922 0-1.67-.748-1.67-1.67 0-.923.748-1.67 1.67-1.67h.109c.922 0 1.67.747 1.67 1.67 0 .922-.748 1.67-1.67 1.67z" fill="#fff"></path><path d="m45.437 8.046c-.923 0-1.67-.747-1.67-1.67v-3.885c0-.923.747-1.67 1.67-1.67s1.67.747 1.67 1.67v3.885c-.001.923-.748 1.67-1.67 1.67z" fill="#444c57"></path><path d="m34.583 9.284c-.539 0-1.067-.261-1.39-.742l-1.733-2.593c-.513-.767-.307-1.804.46-2.316.767-.514 1.804-.306 2.316.46l1.733 2.593c.513.767.307 1.804-.46 2.316-.284.191-.607.282-.926.282z" fill="#444c57"></path><path d="m26.066 16.035c-.107 0-.217-.012-.326-.033l-2.928-.578c-.905-.18-1.494-1.059-1.314-1.963.179-.904 1.057-1.492 1.963-1.314l2.928.58c.904.178 1.492 1.057 1.313 1.962-.157.795-.854 1.346-1.636 1.346z" fill="#444c57"></path><path d="m55.907 9.284c-.319 0-.642-.092-.927-.282-.768-.514-.973-1.551-.46-2.316l1.735-2.594c.514-.766 1.552-.97 2.316-.459.767.514.973 1.551.459 2.316l-1.734 2.594c-.321.48-.851.741-1.389.741z" fill="#444c57"></path><path d="m64.424 16.035c-.781 0-1.479-.551-1.636-1.347-.179-.905.409-1.784 1.313-1.962l2.928-.58c.903-.178 1.784.41 1.963 1.314.18.904-.409 1.783-1.314 1.963l-2.928.578c-.109.022-.219.034-.326.034z" fill="#444c57"></path></g></svg>