<!-- icon666.com - MILLIONS vector ICONS FREE --><svg id="Capa_1" enable-background="new 0 0 512 512" viewBox="0 0 512 512" xmlns="http://www.w3.org/2000/svg"><g><path d="m443.213 371.547c-21.881 21.881-51.686 31.688-75.985 36.027-23.384 4.175-43.914-16.355-39.739-39.739 4.339-24.3 14.146-54.104 36.027-75.985s51.686-31.688 75.985-36.027c23.384-4.176 43.914 16.355 39.739 39.739-4.339 24.299-14.146 54.103-36.027 75.985z" fill="#bce098"></path><path d="m421.036 260.043c-19.829 5.59-40.947 15.233-57.52 31.806-21.881 21.881-31.688 51.686-36.027 75.985-4.175 23.384 16.355 43.914 39.739 39.739 13.789-2.462 29.349-6.689 44.229-13.879z" fill="#99da90"></path><path d="m385.122 357.44c-1.919 0-3.839-.732-5.303-2.196-2.929-2.93-2.929-7.678 0-10.607l42.874-42.874c2.929-2.928 7.678-2.928 10.606 0 2.929 2.93 2.929 7.678 0 10.607l-42.874 42.874c-1.464 1.464-3.383 2.196-5.303 2.196z" fill="#99da90"></path><path d="m361.798 316.337c1.454-28.167 30.438-81.322 31.973-108.193l8.206-114.491c1.007-14.055-10.124-26.013-24.215-26.013h-251.993c-14.092 0-25.223 11.958-24.215 26.013l8.228 114.799s27.243 80.013 28.769 107.885c1.297 23.706-14.307 93.88-14.307 93.881l3.007 41.947c2.416 33.716 30.473 59.835 64.276 59.835h120.477c33.802 0 61.86-26.119 64.277-59.835l3.007-41.948c-.003-.007-18.721-70.039-17.49-93.88z" fill="#ceeafb"></path><path d="m161.527 67.639h-35.758c-14.092 0-25.223 11.958-24.215 26.013l8.228 114.799s27.243 80.013 28.769 107.885c1.297 23.706-14.307 93.88-14.307 93.881l3.007 41.947c2.416 33.717 30.473 59.836 64.276 59.836h77.937c-96.825-64.561-107.333-275.374-107.937-444.361z" fill="#a3defe"></path><path d="m262.952 198.314-29.137 29.137c-9.629 9.629-25.241 9.629-34.87 0l-29.137-29.137c-9.629-9.629-9.629-25.241 0-34.87l29.137-29.137c9.629-9.629 25.241-9.629 34.87 0l29.137 29.137c9.629 9.629 9.629 25.241 0 34.87z" fill="#fff"></path><path d="m258.477 207.665c24.036-39.485 139.77-61.967 135.294.477s-92.499 20.446-135.294-.477z" fill="#daa985"></path><path d="m299.414 255.59h-51.056v-243.883c-.001-6.466 5.241-11.707 11.706-11.707h27.642c6.466 0 11.707 5.241 11.707 11.707v243.883z" fill="#e68a97"></path><path d="m272.051 179.901c-7.306-3.572-15.282-6.69-23.694-9.343v85.031h51.056v-62.857c-10.952-4.811-20.749-9.597-27.362-12.831z" fill="#e26e7e"></path><path d="m258.477 207.665c-37.378-18.274-105.447-25.546-148.695.786l14.461 201.767c1.694 23.637 21.364 41.947 45.061 41.947h164.921c23.697 0 43.367-18.311 45.061-41.947l14.483-202.075c-4.475 62.443-92.497 20.444-135.292-.478z" fill="#e7c7af"></path><path d="m109.782 208.452 14.461 201.767c1.694 23.637 21.364 41.947 45.061 41.947h49.037c-34.789-65.167-48.474-162.299-53.72-260.224-19.79 1.733-38.984 6.856-54.839 16.51z" fill="#daa985"></path><path d="m137.613 120.877c19.835 19.835 28.726 46.853 32.659 68.881 3.785 21.198-14.826 39.809-36.023 36.023-22.028-3.933-49.045-12.824-68.881-32.659-19.835-19.835-28.726-46.853-32.659-68.881-3.785-21.198 14.826-39.809 36.023-36.023 22.028 3.934 49.046 12.824 68.881 32.659z" fill="#bce098"></path><path d="m118.027 181.036c-1.92 0-3.839-.732-5.303-2.196l-33.072-33.072c-2.929-2.93-2.929-7.678 0-10.607 2.929-2.928 7.678-2.928 10.606 0l33.072 33.072c2.929 2.93 2.929 7.678 0 10.607-1.464 1.464-3.384 2.196-5.303 2.196z" fill="#99da90"></path><g><g fill="#fff"><ellipse cx="165.689" cy="332.958" rx="31.765" ry="25.296"></ellipse><ellipse cx="337.864" cy="332.958" rx="31.765" ry="25.296"></ellipse></g><g fill="#565e75"><path d="m184.202 315.796c-4.142 0-7.5-3.357-7.5-7.5v-12.362c0-4.143 3.358-7.5 7.5-7.5s7.5 3.357 7.5 7.5v12.362c0 4.143-3.358 7.5-7.5 7.5z"></path><path d="m251.776 323.837c-8.996 0-17.55-3.896-23.47-10.689-2.721-3.123-2.396-7.86.727-10.582 3.123-2.721 7.86-2.396 10.582.727 3.07 3.523 7.502 5.544 12.161 5.544s9.091-2.021 12.162-5.544c2.721-3.122 7.459-3.447 10.582-.727 3.123 2.722 3.448 7.459.727 10.582-5.921 6.793-14.475 10.689-23.471 10.689z"></path><path d="m336.064 315.451c-4.142 0-7.5-3.357-7.5-7.5 0-3.764-3.062-6.826-6.826-6.826s-6.826 3.063-6.826 6.826c0 4.143-3.358 7.5-7.5 7.5s-7.5-3.357-7.5-7.5c0-12.035 9.791-21.826 21.826-21.826s21.826 9.791 21.826 21.826c0 4.143-3.358 7.5-7.5 7.5z"></path></g></g></g></svg>