<!-- icon666.com - MILLIONS vector ICONS FREE --><svg viewBox="-63 0 512 512.00001" xmlns="http://www.w3.org/2000/svg"><path d="m357.738281 326.210938 20.074219-20.078126v-121.375h-159.355469v121.375c7.933594 7.933594 12.144531 12.144532 20.078125 20.078126zm0 0" fill="#c6c5ca"></path><path d="m334.617188 233.636719c0-11.867188-9.621094-21.488281-21.488282-21.488281-11.867187 0-21.484375 9.621093-21.484375 21.488281 0 8.082031 4.464844 15.117187 11.058594 18.785156v40.703125h20.851563v-40.703125c6.597656-3.667969 11.0625-10.703125 11.0625-18.785156zm0 0" fill="#787680"></path><path d="m218.433594 501.648438-210.933594-69.164063v-424.980469l210.933594 69.164063zm0 0" fill="#ff7956"></path><path d="m333.441406 115.914062h-70.617187c-9.636719 9.636719-15.039063 15.039063-24.675781 24.675782v44.167968h22.371093v-34.898437l11.574219-11.574219h52.082031l11.570313 11.574219v34.898437h22.375v-44.167968c-9.636719-9.636719-15.042969-15.039063-24.679688-24.675782zm0 0" fill="#e0e0e2"></path><path d="m319.621094 233.636719c0-11.867188-9.621094-21.488281-21.488282-21.488281-11.867187 0-21.484374 9.621093-21.484374 21.488281 0 8.082031 4.460937 15.117187 11.058593 18.785156v40.703125h20.851563v-40.703125c6.59375-3.667969 11.0625-10.703125 11.0625-18.785156zm0 0" fill="#787680"></path><g fill="#ffe477"><path d="m238.535156 326.210938c-.1875-.1875-.371094-.367188-.550781-.550782-.121094-.121094-.242187-.242187-.363281-.359375l-1.054688-1.054687c-.171875-.171875-.339844-.34375-.511718-.511719-.113282-.113281-.222657-.226563-.335938-.335937-.164062-.167969-.332031-.332032-.496094-.496094-3.769531-3.769532-6.777344-6.78125-10.191406-10.195313l-.296875-.296875-2.964844-2.96875c-1.039062-1.035156-2.136719-2.132812-3.3125-3.308594v-121.375h19.691407v-44.167968l24.675781-24.679688h35.773437v-108.40625h-291.097656l210.933594 69.164063v355.820312h80.164062v-106.277343zm0 0"></path><path d="m260.519531 149.859375v34.898437h38.078125v-46.472656h-26.507812zm0 0"></path><path d="m188.988281 269.1875c0 13.222656-10.71875 23.941406-23.941406 23.941406s-23.941406-10.71875-23.941406-23.941406 10.71875-23.941406 23.941406-23.941406 23.941406 10.71875 23.941406 23.941406zm0 0"></path></g><path d="m248.449219 306.132812v-121.375h-29.992188v121.371094c7.933594 7.933594 12.144531 12.148438 20.078125 20.082032h29.992188c-7.933594-7.933594-12.144532-12.144532-20.078125-20.078126zm0 0" fill="#898890"></path><path d="m37.496094 432.484375v-415.144531l-29.996094-9.835938v424.980469l210.933594 69.164063v-9.832032zm0 0" fill="#ff3f62"></path><path d="m268.140625 140.589844c9.636719-9.636719 15.042969-15.039063 24.679687-24.675782h-29.996093c-9.636719 9.636719-15.042969 15.039063-24.679688 24.675782v44.167968h22.375v-34.898437l7.621094-7.621094zm0 0" fill="#c6c5ca"></path><path d="m354.167969 138.285156h-29.992188l11.570313 11.574219v34.898437h22.375v-42.519531zm0 0" fill="#c6c5ca"></path><path d="m238.535156 326.210938c-.1875-.1875-.371094-.367188-.550781-.550782-.121094-.121094-.242187-.242187-.363281-.359375l-1.054688-1.054687c-.171875-.171875-.339844-.34375-.511718-.511719-.113282-.113281-.222657-.226563-.335938-.335937-.164062-.167969-.332031-.332032-.496094-.496094-3.769531-3.769532-6.777344-6.78125-10.191406-10.195313l-.300781-.296875-2.964844-2.96875c-1.035156-1.035156-2.132813-2.132812-3.308594-3.308594v-121.375h19.6875v-44.167968l10.285157-10.28125v-53.640625l-210.933594-69.164063h-29.996094l210.933594 69.164063v355.820312h29.996094v-106.277343zm0 0" fill="#ffb655"></path><path d="m298.597656 141.777344v-3.492188h-26.507812l-11.570313 11.574219v34.898437h29.996094v-34.898437zm0 0" fill="#ffb655"></path><path d="m161.101562 269.1875c0-9.65625 5.710938-17.972656 13.941407-21.761719-3.042969-1.402343-6.429688-2.179687-9.996094-2.179687-13.222656 0-23.941406 10.71875-23.941406 23.941406s10.71875 23.941406 23.941406 23.941406c3.566406 0 6.953125-.78125 9.996094-2.183594-8.230469-3.789062-13.941407-12.105468-13.941407-21.757812zm0 0" fill="#ffb655"></path><path d="m298.132812 204.652344c-15.980468 0-28.984374 13-28.984374 28.984375 0 8.953125 4.144531 17.324219 11.058593 22.773437v44.214844h35.851563v-44.214844c6.914062-5.445312 11.058594-13.816406 11.058594-22.773437 0-15.984375-13.003907-28.984375-28.984376-28.984375zm6.78125 41.21875-3.855468 2.144531v37.613281h-5.851563v-37.617187l-3.855469-2.140625c-4.441406-2.472656-7.203124-7.160156-7.203124-12.234375 0-7.710938 6.273437-13.988281 13.988281-13.988281 7.710937 0 13.984375 6.277343 13.984375 13.988281 0 5.074219-2.761719 9.761719-7.207032 12.234375zm0 0"></path><path d="m365.621094 177.257812v-39.773437l-29.074219-29.070313h-76.828125l-29.070312 29.070313v39.773437h-4.714844v-103.175781l-225.933594-74.082031v437.917969l225.933594 74.082031v-187.785156l9.496094 9.496094h125.414062l24.464844-24.472657v-131.980469zm-154.6875 314.042969-195.9375-64.246093v-406.355469l195.9375 64.246093zm34.710937-347.605469 20.285157-20.285156h64.40625l20.285156 20.285156v33.5625h-7.375v-30.503906l-15.964844-15.964844h-58.296875l-15.964844 15.964844v30.503906h-7.375zm82.605469 33.5625h-60.230469v-24.292968l7.179688-7.179688h45.871093l7.179688 7.179688zm42.0625 125.769532-15.683594 15.683594h-112.988281l-15.6875-15.6875v-110.769532h144.359375zm0 0"></path><path d="m291.097656 25h-60.769531v14.996094h60.769531v55.917968h14.996094v-95.91015575h-239.414062v14.99999975h224.417968zm0 0"></path><path d="m291.097656 424.988281h-52.667968v14.996094h67.664062v-93.777344h-14.996094zm0 0"></path><path d="m291.097656 153.285156h14.996094v16.476563h-14.996094zm0 0"></path><path d="m165.042969 300.625c17.339843 0 31.441406-14.101562 31.441406-31.4375s-14.101563-31.441406-31.441406-31.441406c-17.335938 0-31.4375 14.101562-31.4375 31.441406 0 17.335938 14.105469 31.4375 31.4375 31.4375zm0-47.882812c9.066406 0 16.445312 7.375 16.445312 16.445312 0 9.066406-7.378906 16.441406-16.445312 16.441406-9.066407 0-16.441407-7.375-16.441407-16.441406s7.375-16.445312 16.441407-16.445312zm0 0"></path><path d="m191.101562 104.75-113.441406-37.199219 4.671875-14.25 113.441407 37.195313zm-122.941406-40.3125-14.25-4.675781 4.671875-14.25 14.25 4.675781zm-23.753906-7.789062-14.25-4.671876 4.675781-14.25 14.25 4.671876zm0 0" fill="#fff"></path><path d="m360.3125 295.78125h-14.996094v-41.035156h14.996094zm0-51.035156h-14.996094v-14.996094h14.996094zm0-24.996094h-14.996094v-14.996094h14.996094zm0 0" fill="#fff"></path></svg>