<!-- icon666.com - MILLIONS vector ICONS FREE --><svg id="Flat" viewBox="0 0 512 512" xmlns="http://www.w3.org/2000/svg"><path d="m136 184v-88h80v-48h40v-24h40v24h40v48h40v88z" fill="#e3e4e2"></path><path d="m256 24h40v72h-40z" fill="#e89723"></path><path d="m216 48h40v72h-40z" fill="#e9ae48"></path><path d="m296 48h40v72h-40z" fill="#e9ae48"></path><path d="m336 96h40v72h-40z" fill="#e89723"></path><path d="m176 96h40v72h-40z" fill="#e89723"></path><path d="m136 96h40v72h-40z" fill="#e9ae48"></path><path d="m256 96h40v80h-40z" fill="#c9c9c8"></path><path d="m384 216v-88a35.448 35.448 0 0 0 -32.913 22.283l-7.087 17.717h-176l-7.087-17.717a35.448 35.448 0 0 0 -32.913-22.283v88z" fill="#b2b1b4"></path><path d="m120 200h272v288h-272z" fill="#e3e4e2"></path><g fill="#eb5849"><path d="m296 200 96 96v-96z"></path><path d="m216 200-96 96v-96z"></path><path d="m120 456h272v32h-272z"></path><path d="m256 256a48 48 0 1 0 48 48 48 48 0 0 0 -48-48zm0 64a16 16 0 1 1 16-16 16 16 0 0 1 -16 16z"></path></g><path d="m208 448h248v40h-248z" fill="#c9c9c8"></path><path d="m392 448h64v40h-64z" fill="#e9ae48"></path><path d="m224 424h-16v-8a32.036 32.036 0 0 1 32-32h88v16h-88a16.019 16.019 0 0 0 -16 16z" fill="#f8bc1e"></path><path d="m344 384h16v16h-16z" fill="#f8bc1e"></path></svg>