<!-- icon666.com - MILLIONS vector ICONS FREE --><svg enable-background="new 0 0 32 32" viewBox="0 0 32 32" xmlns="http://www.w3.org/2000/svg"><g id="Cake"><path d="m16.317 11.372c.241-.141 5.994-3.36 4.521-7.323-.025-.053-.667-1.294-2.021-1.574-.886-.186-1.826.085-2.809.797-.983-.712-1.929-.98-2.813-.797-1.351.28-1.995 1.521-2.047 1.636-1.443 3.901 4.304 7.129 4.551 7.262.002-.001.353.154.618-.001z" fill="#f77289"></path><path d="m12.746 4.335c-1.014 2.44 1.321 5.469 2.434 6.724-1.435-.917-5.229-3.697-4.027-6.948.049-.114.693-1.354 2.045-1.636.796-.168 1.644.032 2.528.604-2.563-.292-2.98 1.256-2.98 1.256z" fill="#fff" opacity=".2"></path><path d="m16.845 11.062c1.939-1.724 4.773-4.782 3.222-7.955.506.426.756.909.772.942 1.231 3.308-2.561 6.094-3.994 7.013z" fill="#dd5773" opacity=".25"></path><path d="m6.212 24.502-.016-11.407c0-1.943 1.581-3.524 3.523-3.524h12.561c1.942 0 3.523 1.581 3.523 3.523l.015 11.406z" fill="#f9c7d0"></path><path d="m7.834 17.857 1.889-2.747c.63-.915 1.725-.964 2.434-.107l2.457 2.964c.707.855 1.849.84 2.536-.033l2.275-2.897c.687-.873 1.815-.878 2.508-.009l2.325 2.916c.421.528 1.003.719 1.553.604l-.007-5.454c0-1.942-1.581-3.523-3.523-3.523h-12.561c-1.942 0-3.523 1.581-3.523 3.524l.008 5.425c.586.155 1.212-.056 1.629-.663z" fill="#f77289"></path><path d="m21.88 9.57-11.838 1.31c-1.83.16-2.37 2.54-2.37 2.54l-.01 11.08h-1.452l-.01-11.41c0-1.939 1.58-3.52 3.52-3.52z" fill="#fff" opacity=".2"></path><path d="m29.462 24.102c-.159-.364-.519-.601-.917-.601h-25.09c-.398 0-.758.236-.917.601s-.086.79.186 1.081l3.832 4.114c.188.203.454.318.731.318h.002l17.465-.04c.277-.001.541-.116.729-.318l3.793-4.074c.272-.292.345-.716.186-1.081z" fill="#f77289"></path><path d="m25.81 18.55v1.117c-.86.021-2.16.063-2.73-1.067l-1.83-2.84s-.87-1.02-2.58.24l.75-.96c.69-.88 1.82-.88 2.51-.01l2.33 2.91c.42.53 1 .72 1.55.61z" fill="#dd5773" opacity=".15"></path><path d="m22.61 29.58-15.32.04c-.28 0-.55-.12-.73-.32l-3.84-4.12c-.1-.109-.17-.239-.21-.38l4.681 3.37s.369.37.79.33z" fill="#fff" opacity=".2"></path><path d="m29.28 25.18-3.59 3.86 2.689-4.23c.101-.479-.37-.619-.37-.619l-8.009-.691h8.54c.4 0 .76.24.92.6.16.37.09.79-.18 1.08z" fill="#dd5773" opacity=".25"></path></g></svg>