<!-- icon666.com - MILLIONS vector ICONS FREE --><svg fill="none" viewBox="0 0 24 24" xmlns="http://www.w3.org/2000/svg"><g clip-rule="evenodd" fill="rgb(0,0,0)" fill-rule="evenodd"><path d="m12.0005 2.87c.4142 0 .75.33579.75.75v11.38c0 .4142-.3358.75-.75.75s-.75-.3358-.75-.75v-11.38c0-.41421.3358-.75.75-.75z"></path><path d="m11.4701 1.96967c.2929-.29289.7678-.29289 1.0607 0l3.35 3.35c.2929.29289.2929.76777 0 1.06066s-.7678.29289-1.0607 0l-2.8196-2.81967-2.8197 2.81967c-.29289.29289-.76777.29289-1.06066 0-.2929-.29289-.2929-.76777 0-1.06066z"></path><path d="m8.21723 8.84039c.03845.41242-.26472.77793-.67715.81637-1.65554.15433-2.67494.64864-3.30646 1.43804-.64886.811-1.00315 2.0737-1.00315 4.0152v.13c0 2.1608.43721 3.4791 1.23408 4.2759.79687.7969 2.11509 1.2341 4.27592 1.2341.41421 0 .75.3358.75.75s-.33579.75-.75.75c-2.30918 0-4.12095-.4578-5.33658-1.6734-1.21563-1.2157-1.67342-3.0274-1.67342-5.3366v-.13c0-2.0785.3707-3.7508 1.33185-4.9523.97848-1.22308 2.45408-1.81879 4.33854-1.99446.41242-.03845.77792.26472.81637.67715z"></path><path d="m15.6932 8.83565c.0356-.41268.3989-.71842.8116-.68288 1.912.16464 3.4094.75258 4.4031 1.97713.9768 1.2039 1.3526 2.8864 1.3526 4.9801v.13c0 2.3092-.4578 4.1209-1.6735 5.3366-1.2156 1.2156-3.0274 1.6734-5.3365 1.6734h-2.24c-.4142 0-.75-.3358-.75-.75s.3358-.75.75-.75h2.24c2.1608 0 3.479-.4372 4.2759-1.2341.7969-.7968 1.2341-2.1151 1.2341-4.2759v-.13c0-1.9563-.3593-3.2238-1.0174-4.0349-.6414-.7904-1.6789-1.28251-3.367-1.42787-.4127-.03553-.7184-.39889-.6829-.81158z"></path></g></svg>